<svg version="1.1" preserveAspectRatio="none" xmlns="http://www.w3.org/2000/svg" width="500" height="500" viewBox="0 0 500 500"><rect width="100%" height="100%" fill="#1C1C1C" fill-opacity="1"/><svg viewBox="123.2901 151.2 377.6941 300" width="333" height="264.49976316813" x="83.5px" y="117.7501px" xmlns="http://www.w3.org/2000/svg" xmlns:xlink="http://www.w3.org/1999/xlink" preserveAspectRatio="none"><defs></defs><style>.companyName {fill:#EDEDED;fill-opacity:1;}.icon1 {fill:#EDEDED;fill-opacity:1;}.icon2 {fill:#F35F40;fill-opacity:1;}.icon3 {fill:#B2B2B1;fill-opacity:1;}.icon3-str {stroke:#B2B2B1;stroke-opacity:1;}</style><g opacity="1" transform="rotate(0 254.421 151.2)">
<svg width="115.4323" height="200" x="254.421" y="151.2" version="1.1" preserveAspectRatio="none" viewBox="57 25.469003677368164 85.99771118164062 149.00112915039062">
  <g transform="matrix(1 0 0 1 0 0)"><g><path d="M139.377 78.929a5.128 5.128 0 0 0-6.407 3.395l-1.699 3.826c-2.426 5.465-10.609 3.628-10.465-2.349l.803-33.261c0-2.874-2.353-5.281-5.228-5.226a5.126 5.126 0 0 0-5.028 5.125v7.125h2.93c1.01 0 1.008 1.566 0 1.566h-2.93v4.878h5.128c1.01 0 1.008 1.566 0 1.566h-5.128v10.589c0 1.825-1.367 3.4-3.185 3.563a2.84 2.84 0 0 1-.184.012c-1.985.089-3.672-1.751-3.673-3.672-.006-6.886-.502-45.252-.502-45.252 0-2.952-2.394-5.345-5.347-5.345s-5.347 2.393-5.347 5.345l-.073 8.15h3.808c1.01 0 1.008 1.566 0 1.566h-3.822l-.074 8.539h2.87c1.01 0 1.008 1.566 0 1.566h-2.883c-.088 10.497-.179 21.905-.182 25.284-.002 2.059-1.681 3.583-3.674 3.672-1.982.089-3.676-1.751-3.673-3.672.006-5.354-.136-35.733-.136-35.733 0-2.831-2.296-5.126-5.128-5.126s-5.128 2.295-5.128 5.126l-.164 13.862h4.998c1.01 0 1.008 1.566 0 1.566h-5.017l-.101 8.685h6.583c1.01 0 1.008 1.566 0 1.566h-6.601c-.138 11.969-.273 23.901-.274 25.284-.002 2.059-1.682 3.583-3.674 3.672-.812.036-1.576-.251-2.194-.735-.855-.67-1.322-1.72-1.322-2.806V62.109c0-2.874-2.353-5.281-5.228-5.226A5.127 5.127 0 0 0 57 62.008v11.958h4.835c1.01 0 1.008 1.566 0 1.566H57v9.857h4.981c1.01 0 1.008 1.566 0 1.566H57v31.435c.22 2.123.594 4.205 1.107 6.236 2.057 8.141 6.218 14.521 11.565 19.126v25.036c0 1.724 1.516 3.375 3.296 3.295.067-.003.132-.01.198-.016 10.949 1.847 22.105 3.616 33.13 1.3 3.049-.641 5.977-1.656 8.807-2.953 1.355-.621 1.92-2.485 1.474-3.88a2.93 2.93 0 0 0 .199-1.11l-.621-19.521c6.29-4.408 11.376-10.976 14.066-19.731l12.55-40.838a5.123 5.123 0 0 0-3.394-6.405z" data-color="1" class="icon1"></path><path d="M113.876 109.106c-.109-.397-.482-.542-.855-.485-7.276 1.103-13.372 6.486-15.417 13.541a19.11 19.11 0 0 0-.728 6.328c.048.889 1.438.895 1.39 0a17.968 17.968 0 0 1 2.466-10.093c1.719-2.905 4.278-5.233 7.29-6.747a17.958 17.958 0 0 1 5.369-1.69c.371-.056.576-.523.485-.854z" data-color="2" class="icon2"></path><path d="M117.782 109.113a.523.523 0 0 0-.082-.258.709.709 0 0 0-.397-.314c-.008-.005-.015-.011-.023-.015a.514.514 0 0 0-.258-.082.522.522 0 0 0-.277.012.704.704 0 0 0-.415.319.714.714 0 0 0-.07.535c.04.136.103.252.203.353a.742.742 0 0 0 .266.175.663.663 0 0 0 .319.072l.021-.001.185-.025c.069-.017.131-.052.196-.08a.525.525 0 0 0 .195-.179.522.522 0 0 0 .124-.236.518.518 0 0 0 .013-.276z" data-color="2" class="icon2"></path><path d="M117.91 148.496a3.293 3.293 0 0 0-.943-1.069c.613-.766.028-2.196-1.095-1.782-2.095.77-4.092 1.903-5.764 3.397a4.446 4.446 0 0 0-2.898-.015 1.1 1.1 0 0 0-.606.481 1.262 1.262 0 0 0-.137.092c-1.276 1-2.375 2.19-3.274 3.539l-.062.093a7.261 7.261 0 0 0-1.949.1c-1.648.316-3.219 1.219-4.354 2.485a11.774 11.774 0 0 0-.902-.144 29.98 29.98 0 0 0-6.912-.025c-1.3-1.86-3.441-2.455-5.614-2.612-1.665-2.344-3.986-4.107-6.727-5.014l-.103-.033a5.65 5.65 0 0 0-.253-.785c-.842-2.051-2.943-3.354-5.098-3.118-.454-.214-1.017-.149-1.331.405a1.084 1.084 0 0 0-.405.789c-1.071 2.169-1.893 4.56-.735 6.882a4.19 4.19 0 0 0 2.024 1.97c.704 1.385 1.739 2.644 2.754 3.545.875.776 1.945 1.504 3.098 2 .73 1.632 2.181 3.014 3.684 3.814 2.363 1.257 5.346 1.229 7.406-.621.086-.078.169-.159.248-.242 2.157 1.787 5.144 2.505 7.999 1.546a9.226 9.226 0 0 0 1.597-.714c.159.07.326.132.501.187 2.322.724 5.395.444 7.401-.979a5.75 5.75 0 0 0 2.004-2.604 7.76 7.76 0 0 0 1.6-.388c1.898-.695 3.453-2.174 4.098-4.006.445-.209.874-.446 1.275-.683 1.212-.717 2.452-1.649 3.208-2.86.678-1.083.908-2.476.265-3.631zm-20.216 9.845c.066.036.131.075.192.117.933.635.289 1.658-.345 2.282-.464-.768-.299-1.62.153-2.399zm-27.223-9.567c.176-.856.572-1.696.972-2.471 1.064-.126 1.93.401 2.472 1.196-1.375-.056-2.711.247-3.444 1.275zm1.956 3.491c-.316-.793-.595-1.838-.024-2.336.488-.426 1.346-.364 2.12-.201-.058.892-.473 1.75-1.345 2.283a1.674 1.674 0 0 1-.751.254zm5.482 1.617c-1.02.713-1.592 1.835-1.736 3.049a9.542 9.542 0 0 1-2.679-2.641 3.974 3.974 0 0 0 1.012-.501c1.185-.81 1.911-2.063 2.15-3.415a11.006 11.006 0 0 1 3.901 2.662c-.94.083-1.864.298-2.648.846zm.486 4.06a2.632 2.632 0 0 1-.008-.916c.211-1.217 1.196-1.688 2.333-1.787.154-.013.314-.026.477-.037.045.025.092.048.142.068.989.4.581 1.768-.037 2.269-.826.67-1.917.663-2.907.403zm6.854 3.913c-1.952.838-4.082-.103-5.488-1.532a5.127 5.127 0 0 0 1.769-.385c1.403-.584 2.54-1.842 2.617-3.41a3.467 3.467 0 0 0-.175-1.278c.728.099 1.43.288 2.033.618a1.169 1.169 0 0 0-.192.302c-.603.193-.764.771-.613 1.277-.104.209-.14.463-.065.753a8.48 8.48 0 0 0 1.292 2.779 3.143 3.143 0 0 1-1.178.876zm3.857-1.201a4.991 4.991 0 0 0 .036-2.791 28.83 28.83 0 0 1 5.574-.093c.261.021.544.038.835.062-.597 1.454-.519 2.952.196 4.097-2.263.962-4.878.357-6.641-1.275zm14.249.657c-1.028.425-2.164.505-3.264.442a12.033 12.033 0 0 1-.426-.033c.542-.686.898-1.484.926-2.38.04-1.253-.563-2.092-1.432-2.653.373-.302.75-.548 1.077-.71a5.703 5.703 0 0 1 1.748-.529c-.231.718-.302 1.465-.052 2.203.473 1.396 1.683 2.111 3.061 2.374a3.896 3.896 0 0 1-1.638 1.286zm.665-4.895c.032-.217.099-.44.188-.662.254.136.482.316.674.546a.985.985 0 0 0 .209.56c.241.328.386.67.454 1.013-.91-.121-1.665-.515-1.525-1.457zm3.913 1.298a3.769 3.769 0 0 1-.145.037 4.12 4.12 0 0 0-.547-1.653 1.23 1.23 0 0 0-.098-.358c-.376-.856-1.01-1.469-1.771-1.878.096-.126.191-.246.28-.359.692-.876 1.505-1.646 2.383-2.334.04-.031.075-.063.108-.096.035-.007.069-.013.104-.018-.682.956-1.162 2.099-.807 3.277.363 1.206 1.559 1.942 2.772 2.027a5.042 5.042 0 0 1-2.279 1.355zm3.328-3.67c-.483.149-.984.205-1.375-.02-.765-.441-.179-1.396.572-2.226.458.46.762 1.09.806 1.798.009.152.006.301-.003.448zm4.751-3.628c-.218.74-.85 1.322-1.43 1.792-.363.294-.752.559-1.155.801a4.818 4.818 0 0 0-1.349-2.721 14.542 14.542 0 0 1 2.071-1.429c.24.266.606.41 1.058.279.699-.202.96.753.805 1.278z" data-color="3" class="icon3"></path><clipPath id="0e983221-e531-4017-a4e9-d6c21524ac11"></clipPath><g clip-path="url(#0e983221-e531-4017-a4e9-d6c21524ac11)"><path d="M115.378 154.48c2.109-1.292 3.357-3.701 3.054-6.176-.128-1.051-1.794-1.062-1.664 0 .231 1.891-.568 3.722-2.212 4.729-.913.559-.092 2.007.822 1.447z" data-color="4" class="icon1"></path><path d="M109.398 146.995c-1.752 1.554-3.051 3.464-3.921 5.632-.399.994 1.211 1.425 1.605.442.762-1.898 1.967-3.544 3.493-4.898.803-.712-.378-1.885-1.177-1.176z" data-color="4" class="icon1"></path><path d="M110.231 158.538a11.315 11.315 0 0 1-5.977 1.686c-1.071 0-1.073 1.664 0 1.664 2.42 0 4.752-.651 6.818-1.913.911-.558.076-1.997-.841-1.437z" data-color="4" class="icon1"></path><path d="M99.952 156.857c-1.565-.754-3.174-.987-4.891-.742-1.056.151-.607 1.754.442 1.604a6.256 6.256 0 0 1 3.608.574c.962.463 1.807-.971.841-1.436z" data-color="4" class="icon1"></path><path d="M88.021 159.363c-1.227 1.09-2.771 1.532-4.392 1.37-1.065-.107-1.058 1.558 0 1.664 2.058.206 4.032-.491 5.569-1.857.802-.713-.379-1.886-1.177-1.177z" data-color="4" class="icon1"></path><path d="M81.643 151.216c-.878-.617-1.711.825-.84 1.437 1.17.822 1.446 2.428.554 3.567-.653.834.517 2.019 1.177 1.176 1.584-2.022 1.227-4.693-.891-6.18z" data-color="4" class="icon1"></path><path d="M74.147 150.816c-1.239-.321-.942-1.997-.777-2.92.188-1.047-1.416-1.496-1.605-.442-.336 1.874-.336 4.377 1.939 4.967 1.038.268 1.481-1.336.443-1.605z" data-color="4" class="icon1"></path></g></g></g>
</svg>
</g><g opacity="1" transform="rotate(0 123.2901 391.2)">
<svg width="377.6941" height="60" x="123.2901" y="391.2" version="1.1" preserveAspectRatio="none" viewBox="1.52 -34.68 220.32 35">
  <g transform="matrix(1 0 0 1 0 0)" class="companyName"><path id="id-D6z1nYkh10" d="M7.72 0L1.52 0L1.52-34.36L12-34.36L14.88-13.40L17.76-34.36L28.32-34.36L28.32 0L22.04 0L22.04-24.76L18.08 0L11.92 0L7.72-24.76L7.72 0Z M39.92 0L33.24 0L36.56-34.36L48.20-34.36L51.48 0L44.96 0L44.48-5.56L40.32-5.56L39.92 0ZM42.12-28.52L40.84-11.04L43.96-11.04L42.44-28.52L42.12-28.52Z M64.52 0.32Q59.84 0.32 57.76-2Q55.68-4.32 55.68-9.48L55.68-9.48L55.68-12.84L62.44-12.84L62.44-8.56Q62.44-6 64.08-6L64.08-6Q65-6 65.36-6.54Q65.72-7.08 65.72-8.36L65.72-8.36Q65.72-10.04 65.32-11.14Q64.92-12.24 64.30-12.98Q63.68-13.72 62.08-15.28L62.08-15.28L59.12-18.24Q55.68-21.60 55.68-25.68L55.68-25.68Q55.68-30.08 57.70-32.38Q59.72-34.68 63.60-34.68L63.60-34.68Q68.24-34.68 70.28-32.22Q72.32-29.76 72.32-24.52L72.32-24.52L65.32-24.52L65.28-26.88Q65.28-27.56 64.90-27.96Q64.52-28.36 63.84-28.36L63.84-28.36Q63.04-28.36 62.64-27.92Q62.24-27.48 62.24-26.72L62.24-26.72Q62.24-25.04 64.16-23.24L64.16-23.24L68.16-19.40Q69.56-18.04 70.48-16.82Q71.40-15.60 71.96-13.94Q72.52-12.28 72.52-10L72.52-10Q72.52-4.92 70.66-2.30Q68.80 0.32 64.52 0.32L64.52 0.32Z M87.44 0L80.56 0L80.56-27.76L76.48-27.76L76.48-34.36L91.52-34.36L91.52-27.76L87.44-27.76L87.44 0Z M110.44 0L96.24 0L96.24-34.36L110-34.36L110-27.72L103.24-27.72L103.24-21.04L109.72-21.04L109.72-14.56L103.24-14.56L103.24-6.68L110.44-6.68L110.44 0Z M115.52 0L115.52-34.36L126.08-34.36Q128.60-34.36 129.98-33.22Q131.36-32.08 131.84-30.02Q132.32-27.96 132.32-24.76L132.32-24.76Q132.32-21.84 131.56-20.20Q130.80-18.56 128.92-17.92L128.92-17.92Q130.48-17.60 131.18-16.36Q131.88-15.12 131.88-13L131.88-13L131.80 0L125.08 0L125.08-13.44Q125.08-14.88 124.52-15.28Q123.96-15.68 122.48-15.68L122.48-15.68L122.48 0L115.52 0ZM122.52-21.64L124.16-21.64Q125.60-21.64 125.60-24.76L125.60-24.76Q125.60-26.12 125.48-26.80Q125.36-27.48 125.04-27.74Q124.72-28 124.12-28L124.12-28L122.52-28L122.52-21.64Z M144.24 0L137.40 0L137.40-34.36L144.24-34.36L144.24-22.08L147.48-22.08L147.48-34.36L154.32-34.36L154.32 0L147.48 0L147.48-15.60L144.24-15.60L144.24 0Z M165.92 0L159.24 0L162.56-34.36L174.20-34.36L177.48 0L170.96 0L170.48-5.56L166.32-5.56L165.92 0ZM168.12-28.52L166.84-11.04L169.96-11.04L168.44-28.52L168.12-28.52Z M190.36 0.32Q186.60 0.32 184.34-2.04Q182.08-4.40 182.08-8.52L182.08-8.52L182.08-24.36Q182.08-29.48 184.12-32.08Q186.16-34.68 190.52-34.68L190.52-34.68Q194.32-34.68 196.64-32.60Q198.96-30.52 198.96-26.60L198.96-26.60L198.96-20.68L192.12-20.68L192.12-25.76Q192.12-27.24 191.76-27.80Q191.40-28.36 190.52-28.36L190.52-28.36Q189.60-28.36 189.26-27.72Q188.92-27.08 188.92-25.84L188.92-25.84L188.92-8.60Q188.92-7.24 189.32-6.62Q189.72-6 190.52-6L190.52-6Q192.12-6 192.12-8.60L192.12-8.60L192.12-14.80L199.04-14.80L199.04-8.32Q199.04 0.32 190.36 0.32L190.36 0.32Z M210.96 0L204.12 0L204.12-34.36L210.92-34.36L210.92-20.60L214.12-34.36L221.04-34.36L217.20-18.64L221.84 0L214.72 0L210.96-16.64L210.96 0Z"/></g>
</svg>
</g></svg></svg>